<mxfile host="65bd71144e">
    <diagram id="0uBArUnVMYasdlc0vBjI" name="PÃ¡gina-1">
        <mxGraphModel dx="1478" dy="844" grid="1" gridSize="10" guides="1" tooltips="1" connect="1" arrows="1" fold="1" page="1" pageScale="1" pageWidth="3300" pageHeight="2339" math="0" shadow="0">
            <root>
                <mxCell id="0"/>
                <mxCell id="2628Q4g7fj1R3oGlUBzu-17" value="CPU" style="" parent="0"/>
                <mxCell id="EzgPWdz7aM8sBUb9HzV1-23" value="" style="rounded=0;whiteSpace=wrap;html=1;fontSize=17;fontColor=#97D077;strokeWidth=5;" vertex="1" parent="2628Q4g7fj1R3oGlUBzu-17">
                    <mxGeometry x="1020" y="150" width="1290" height="670" as="geometry"/>
                </mxCell>
                <mxCell id="2628Q4g7fj1R3oGlUBzu-25" value="Mux" style="rounded=0;whiteSpace=wrap;html=1;points=[[0,0,0,0,0],[0,0.21,0,0,0],[0,0.41,0,0,0],[0,0.62,0,0,0],[0,0.81,0,0,0],[0,1,0,0,0],[0.25,0,0,0,0],[0.25,1,0,0,0],[0.5,0,0,0,0],[0.5,1,0,0,0],[0.75,0,0,0,0],[0.75,1,0,0,0],[1,0,0,0,0],[1,0.21,0,0,0],[1,0.41,0,0,0],[1,0.62,0,0,0],[1,0.81,0,0,0],[1,1,0,0,0]];" vertex="1" parent="2628Q4g7fj1R3oGlUBzu-17">
                    <mxGeometry x="1240" y="270" width="40" height="160" as="geometry"/>
                </mxCell>
                <mxCell id="2628Q4g7fj1R3oGlUBzu-26" value="" style="endArrow=none;html=1;rounded=0;exitX=1;exitY=1;exitDx=0;exitDy=0;entryX=0;entryY=0.5;entryDx=0;entryDy=0;" edge="1" parent="2628Q4g7fj1R3oGlUBzu-17" source="2628Q4g7fj1R3oGlUBzu-25" target="2628Q4g7fj1R3oGlUBzu-25">
                    <mxGeometry width="50" height="50" relative="1" as="geometry">
                        <mxPoint x="1330" y="440" as="sourcePoint"/>
                        <mxPoint x="1380" y="390" as="targetPoint"/>
                    </mxGeometry>
                </mxCell>
                <mxCell id="2628Q4g7fj1R3oGlUBzu-27" value="" style="endArrow=none;html=1;rounded=0;exitX=0;exitY=0.5;exitDx=0;exitDy=0;entryX=1;entryY=0;entryDx=0;entryDy=0;" edge="1" parent="2628Q4g7fj1R3oGlUBzu-17" source="2628Q4g7fj1R3oGlUBzu-25" target="2628Q4g7fj1R3oGlUBzu-25">
                    <mxGeometry width="50" height="50" relative="1" as="geometry">
                        <mxPoint x="1340" y="510" as="sourcePoint"/>
                        <mxPoint x="1390" y="460" as="targetPoint"/>
                    </mxGeometry>
                </mxCell>
                <mxCell id="2628Q4g7fj1R3oGlUBzu-28" style="edgeStyle=orthogonalEdgeStyle;rounded=0;orthogonalLoop=1;jettySize=auto;html=1;fontSize=12;exitX=1;exitY=0.5;exitDx=0;exitDy=0;" edge="1" parent="2628Q4g7fj1R3oGlUBzu-17" source="2628Q4g7fj1R3oGlUBzu-29">
                    <mxGeometry relative="1" as="geometry">
                        <mxPoint x="1380" y="460" as="targetPoint"/>
                        <Array as="points">
                            <mxPoint x="1400" y="690"/>
                            <mxPoint x="1400" y="460"/>
                        </Array>
                        <mxPoint x="1330" y="610" as="sourcePoint"/>
                    </mxGeometry>
                </mxCell>
                <mxCell id="2628Q4g7fj1R3oGlUBzu-29" value="PC" style="rounded=0;whiteSpace=wrap;html=1;" vertex="1" parent="2628Q4g7fj1R3oGlUBzu-17">
                    <mxGeometry x="1330" y="627.5" width="30" height="125" as="geometry"/>
                </mxCell>
                <mxCell id="2628Q4g7fj1R3oGlUBzu-30" value="" style="endArrow=none;html=1;rounded=0;" edge="1" parent="2628Q4g7fj1R3oGlUBzu-17">
                    <mxGeometry width="50" height="50" relative="1" as="geometry">
                        <mxPoint x="1340" y="460" as="sourcePoint"/>
                        <mxPoint x="1340" y="400" as="targetPoint"/>
                    </mxGeometry>
                </mxCell>
                <mxCell id="2628Q4g7fj1R3oGlUBzu-31" value="" style="endArrow=none;html=1;rounded=0;" edge="1" parent="2628Q4g7fj1R3oGlUBzu-17">
                    <mxGeometry width="50" height="50" relative="1" as="geometry">
                        <mxPoint x="1340" y="400" as="sourcePoint"/>
                        <mxPoint x="1380" y="380" as="targetPoint"/>
                    </mxGeometry>
                </mxCell>
                <mxCell id="2628Q4g7fj1R3oGlUBzu-32" value="" style="endArrow=none;html=1;rounded=0;" edge="1" parent="2628Q4g7fj1R3oGlUBzu-17">
                    <mxGeometry width="50" height="50" relative="1" as="geometry">
                        <mxPoint x="1340" y="460" as="sourcePoint"/>
                        <mxPoint x="1380" y="480" as="targetPoint"/>
                    </mxGeometry>
                </mxCell>
                <mxCell id="2628Q4g7fj1R3oGlUBzu-33" value="" style="endArrow=none;html=1;rounded=0;" edge="1" parent="2628Q4g7fj1R3oGlUBzu-17">
                    <mxGeometry width="50" height="50" relative="1" as="geometry">
                        <mxPoint x="1380" y="380" as="sourcePoint"/>
                        <mxPoint x="1380" y="420" as="targetPoint"/>
                    </mxGeometry>
                </mxCell>
                <mxCell id="2628Q4g7fj1R3oGlUBzu-34" value="" style="endArrow=none;html=1;rounded=0;" edge="1" parent="2628Q4g7fj1R3oGlUBzu-17">
                    <mxGeometry width="50" height="50" relative="1" as="geometry">
                        <mxPoint x="1380" y="480" as="sourcePoint"/>
                        <mxPoint x="1380" y="440" as="targetPoint"/>
                    </mxGeometry>
                </mxCell>
                <mxCell id="2628Q4g7fj1R3oGlUBzu-35" value="" style="endArrow=none;html=1;rounded=0;" edge="1" parent="2628Q4g7fj1R3oGlUBzu-17">
                    <mxGeometry width="50" height="50" relative="1" as="geometry">
                        <mxPoint x="1370" y="430" as="sourcePoint"/>
                        <mxPoint x="1380" y="420" as="targetPoint"/>
                    </mxGeometry>
                </mxCell>
                <mxCell id="2628Q4g7fj1R3oGlUBzu-36" value="" style="endArrow=none;html=1;rounded=0;" edge="1" parent="2628Q4g7fj1R3oGlUBzu-17">
                    <mxGeometry width="50" height="50" relative="1" as="geometry">
                        <mxPoint x="1370" y="430" as="sourcePoint"/>
                        <mxPoint x="1380" y="440" as="targetPoint"/>
                    </mxGeometry>
                </mxCell>
                <mxCell id="2628Q4g7fj1R3oGlUBzu-37" value="" style="endArrow=classic;html=1;rounded=0;fontSize=5;entryX=1;entryY=0.81;entryDx=0;entryDy=0;entryPerimeter=0;" edge="1" parent="2628Q4g7fj1R3oGlUBzu-17" target="2628Q4g7fj1R3oGlUBzu-25">
                    <mxGeometry width="50" height="50" relative="1" as="geometry">
                        <mxPoint x="1340" y="430" as="sourcePoint"/>
                        <mxPoint x="1350" y="400" as="targetPoint"/>
                        <Array as="points">
                            <mxPoint x="1310" y="430"/>
                            <mxPoint x="1310" y="400"/>
                        </Array>
                    </mxGeometry>
                </mxCell>
                <mxCell id="2628Q4g7fj1R3oGlUBzu-38" value="S&lt;br&gt;U&lt;br&gt;M" style="text;html=1;strokeColor=none;fillColor=none;align=center;verticalAlign=middle;whiteSpace=wrap;rounded=0;fontSize=12;" vertex="1" parent="2628Q4g7fj1R3oGlUBzu-17">
                    <mxGeometry x="1330" y="420" width="50" height="20" as="geometry"/>
                </mxCell>
                <mxCell id="2628Q4g7fj1R3oGlUBzu-39" value="" style="endArrow=classic;html=1;rounded=0;fontSize=12;" edge="1" parent="2628Q4g7fj1R3oGlUBzu-17">
                    <mxGeometry width="50" height="50" relative="1" as="geometry">
                        <mxPoint x="1400" y="590" as="sourcePoint"/>
                        <mxPoint x="1480" y="590" as="targetPoint"/>
                    </mxGeometry>
                </mxCell>
                <mxCell id="2628Q4g7fj1R3oGlUBzu-40" style="edgeStyle=orthogonalEdgeStyle;rounded=0;orthogonalLoop=1;jettySize=auto;html=1;exitX=1;exitY=0.5;exitDx=0;exitDy=0;fontSize=9;" edge="1" parent="2628Q4g7fj1R3oGlUBzu-17" source="2628Q4g7fj1R3oGlUBzu-41">
                    <mxGeometry relative="1" as="geometry">
                        <mxPoint x="1580" y="589.8095238095239" as="targetPoint"/>
                        <Array as="points">
                            <mxPoint x="1580" y="590"/>
                        </Array>
                    </mxGeometry>
                </mxCell>
                <mxCell id="2628Q4g7fj1R3oGlUBzu-41" value="&lt;font style=&quot;font-size: 12px;&quot;&gt;Memoria de programa&lt;br&gt;&lt;br&gt;1024 x 32b&lt;/font&gt;" style="rounded=0;whiteSpace=wrap;html=1;" vertex="1" parent="2628Q4g7fj1R3oGlUBzu-17">
                    <mxGeometry x="1450" y="530" width="90" height="110" as="geometry"/>
                </mxCell>
                <mxCell id="2628Q4g7fj1R3oGlUBzu-42" value="" style="endArrow=none;html=1;rounded=0;fontSize=9;strokeWidth=7;" edge="1" parent="2628Q4g7fj1R3oGlUBzu-17">
                    <mxGeometry width="50" height="50" relative="1" as="geometry">
                        <mxPoint x="1580" y="640" as="sourcePoint"/>
                        <mxPoint x="1580" y="480" as="targetPoint"/>
                    </mxGeometry>
                </mxCell>
                <mxCell id="2628Q4g7fj1R3oGlUBzu-43" value="" style="endArrow=none;html=1;rounded=0;fontSize=9;strokeWidth=1;" edge="1" parent="2628Q4g7fj1R3oGlUBzu-17">
                    <mxGeometry width="50" height="50" relative="1" as="geometry">
                        <mxPoint x="1590" y="640" as="sourcePoint"/>
                        <mxPoint x="1590" y="580" as="targetPoint"/>
                    </mxGeometry>
                </mxCell>
                <mxCell id="2628Q4g7fj1R3oGlUBzu-44" value="" style="endArrow=none;html=1;rounded=0;fontSize=9;strokeWidth=1;" edge="1" parent="2628Q4g7fj1R3oGlUBzu-17">
                    <mxGeometry width="50" height="50" relative="1" as="geometry">
                        <mxPoint x="1590" y="599.8299999999999" as="sourcePoint"/>
                        <mxPoint x="1600" y="599.8299999999999" as="targetPoint"/>
                    </mxGeometry>
                </mxCell>
                <mxCell id="2628Q4g7fj1R3oGlUBzu-45" value="" style="endArrow=none;html=1;rounded=0;fontSize=9;strokeWidth=1;" edge="1" parent="2628Q4g7fj1R3oGlUBzu-17">
                    <mxGeometry width="50" height="50" relative="1" as="geometry">
                        <mxPoint x="1600" y="600" as="sourcePoint"/>
                        <mxPoint x="1600" y="370" as="targetPoint"/>
                    </mxGeometry>
                </mxCell>
                <mxCell id="2628Q4g7fj1R3oGlUBzu-46" value="" style="endArrow=classic;html=1;rounded=0;fontSize=9;strokeWidth=1;entryX=1;entryY=0.62;entryDx=0;entryDy=0;entryPerimeter=0;" edge="1" parent="2628Q4g7fj1R3oGlUBzu-17" target="2628Q4g7fj1R3oGlUBzu-25">
                    <mxGeometry width="50" height="50" relative="1" as="geometry">
                        <mxPoint x="1600" y="369" as="sourcePoint"/>
                        <mxPoint x="1500" y="300" as="targetPoint"/>
                        <Array as="points">
                            <mxPoint x="1390" y="370"/>
                            <mxPoint x="1340" y="370"/>
                        </Array>
                    </mxGeometry>
                </mxCell>
                <mxCell id="2628Q4g7fj1R3oGlUBzu-47" value="" style="endArrow=none;html=1;rounded=0;fontSize=9;strokeWidth=1;" edge="1" parent="2628Q4g7fj1R3oGlUBzu-17">
                    <mxGeometry width="50" height="50" relative="1" as="geometry">
                        <mxPoint x="1630" y="640" as="sourcePoint"/>
                        <mxPoint x="1630" y="570" as="targetPoint"/>
                    </mxGeometry>
                </mxCell>
                <mxCell id="2628Q4g7fj1R3oGlUBzu-48" value="" style="endArrow=none;html=1;rounded=0;fontSize=9;strokeWidth=1;" edge="1" parent="2628Q4g7fj1R3oGlUBzu-17">
                    <mxGeometry width="50" height="50" relative="1" as="geometry">
                        <mxPoint x="1650" y="640" as="sourcePoint"/>
                        <mxPoint x="1650" y="600" as="targetPoint"/>
                    </mxGeometry>
                </mxCell>
                <mxCell id="2628Q4g7fj1R3oGlUBzu-49" value="" style="endArrow=none;html=1;rounded=0;fontSize=9;strokeWidth=1;" edge="1" parent="2628Q4g7fj1R3oGlUBzu-17">
                    <mxGeometry width="50" height="50" relative="1" as="geometry">
                        <mxPoint x="1650" y="600" as="sourcePoint"/>
                        <mxPoint x="1650" y="560" as="targetPoint"/>
                        <Array as="points">
                            <mxPoint x="1650" y="580"/>
                        </Array>
                    </mxGeometry>
                </mxCell>
                <mxCell id="2628Q4g7fj1R3oGlUBzu-50" value="" style="endArrow=none;html=1;rounded=0;fontSize=9;strokeWidth=1;" edge="1" parent="2628Q4g7fj1R3oGlUBzu-17">
                    <mxGeometry width="50" height="50" relative="1" as="geometry">
                        <mxPoint x="1650" y="600" as="sourcePoint"/>
                        <mxPoint x="1660" y="600" as="targetPoint"/>
                    </mxGeometry>
                </mxCell>
                <mxCell id="2628Q4g7fj1R3oGlUBzu-51" value="" style="endArrow=none;html=1;rounded=0;fontSize=9;strokeWidth=1;" edge="1" parent="2628Q4g7fj1R3oGlUBzu-17">
                    <mxGeometry width="50" height="50" relative="1" as="geometry">
                        <mxPoint x="1650" y="639.8400000000001" as="sourcePoint"/>
                        <mxPoint x="1660" y="639.8400000000001" as="targetPoint"/>
                        <Array as="points">
                            <mxPoint x="1650" y="639.8399999999999"/>
                        </Array>
                    </mxGeometry>
                </mxCell>
                <mxCell id="2628Q4g7fj1R3oGlUBzu-52" value="" style="endArrow=none;html=1;rounded=0;fontSize=9;strokeWidth=1;" edge="1" parent="2628Q4g7fj1R3oGlUBzu-17">
                    <mxGeometry width="50" height="50" relative="1" as="geometry">
                        <mxPoint x="1650" y="560" as="sourcePoint"/>
                        <mxPoint x="1660" y="560" as="targetPoint"/>
                    </mxGeometry>
                </mxCell>
                <mxCell id="2628Q4g7fj1R3oGlUBzu-53" value="" style="endArrow=none;html=1;rounded=0;fontSize=9;strokeWidth=1;" edge="1" parent="2628Q4g7fj1R3oGlUBzu-17">
                    <mxGeometry width="50" height="50" relative="1" as="geometry">
                        <mxPoint x="1650" y="560" as="sourcePoint"/>
                        <mxPoint x="1650" y="520" as="targetPoint"/>
                        <Array as="points">
                            <mxPoint x="1650" y="540"/>
                        </Array>
                    </mxGeometry>
                </mxCell>
                <mxCell id="2628Q4g7fj1R3oGlUBzu-55" value="" style="endArrow=none;html=1;rounded=0;fontSize=9;strokeWidth=1;" edge="1" parent="2628Q4g7fj1R3oGlUBzu-17">
                    <mxGeometry width="50" height="50" relative="1" as="geometry">
                        <mxPoint x="1650" y="520" as="sourcePoint"/>
                        <mxPoint x="1660" y="520" as="targetPoint"/>
                    </mxGeometry>
                </mxCell>
                <mxCell id="2628Q4g7fj1R3oGlUBzu-56" value="&lt;font size=&quot;1&quot;&gt;Banco Registros&lt;br&gt;&lt;br&gt;16x16b&lt;br&gt;&lt;/font&gt;" style="rounded=0;whiteSpace=wrap;html=1;" vertex="1" parent="2628Q4g7fj1R3oGlUBzu-17">
                    <mxGeometry x="1770" y="490" width="50" height="100" as="geometry"/>
                </mxCell>
                <mxCell id="2628Q4g7fj1R3oGlUBzu-57" value="" style="endArrow=classic;html=1;rounded=0;fontSize=9;strokeWidth=1;entryX=0.014;entryY=0.197;entryDx=0;entryDy=0;entryPerimeter=0;" edge="1" parent="2628Q4g7fj1R3oGlUBzu-17" target="2628Q4g7fj1R3oGlUBzu-56">
                    <mxGeometry width="50" height="50" relative="1" as="geometry">
                        <mxPoint x="1650" y="540" as="sourcePoint"/>
                        <mxPoint x="1730" y="500" as="targetPoint"/>
                        <Array as="points">
                            <mxPoint x="1680" y="540"/>
                            <mxPoint x="1680" y="510"/>
                            <mxPoint x="1720" y="510"/>
                        </Array>
                    </mxGeometry>
                </mxCell>
                <mxCell id="2628Q4g7fj1R3oGlUBzu-58" value="" style="endArrow=classic;html=1;rounded=0;fontSize=9;strokeWidth=1;entryX=0;entryY=0.5;entryDx=0;entryDy=0;startArrow=none;" edge="1" parent="2628Q4g7fj1R3oGlUBzu-17" target="2628Q4g7fj1R3oGlUBzu-56">
                    <mxGeometry width="50" height="50" relative="1" as="geometry">
                        <mxPoint x="1650" y="580" as="sourcePoint"/>
                        <mxPoint x="1760" y="560" as="targetPoint"/>
                        <Array as="points">
                            <mxPoint x="1700" y="580"/>
                            <mxPoint x="1700" y="540"/>
                            <mxPoint x="1720" y="540"/>
                            <mxPoint x="1750" y="540"/>
                        </Array>
                    </mxGeometry>
                </mxCell>
                <mxCell id="2628Q4g7fj1R3oGlUBzu-59" value="" style="endArrow=classic;html=1;rounded=0;fontSize=9;strokeWidth=1;entryX=-0.007;entryY=0.802;entryDx=0;entryDy=0;entryPerimeter=0;" edge="1" parent="2628Q4g7fj1R3oGlUBzu-17" target="2628Q4g7fj1R3oGlUBzu-56">
                    <mxGeometry width="50" height="50" relative="1" as="geometry">
                        <mxPoint x="1650" y="620" as="sourcePoint"/>
                        <mxPoint x="1750" y="590" as="targetPoint"/>
                        <Array as="points">
                            <mxPoint x="1720" y="620"/>
                            <mxPoint x="1720" y="570"/>
                            <mxPoint x="1730" y="570"/>
                            <mxPoint x="1750" y="570"/>
                        </Array>
                    </mxGeometry>
                </mxCell>
                <mxCell id="2628Q4g7fj1R3oGlUBzu-60" value="" style="endArrow=none;html=1;rounded=0;" edge="1" parent="2628Q4g7fj1R3oGlUBzu-17">
                    <mxGeometry width="50" height="50" relative="1" as="geometry">
                        <mxPoint x="2050" y="440" as="sourcePoint"/>
                        <mxPoint x="2050" y="500" as="targetPoint"/>
                    </mxGeometry>
                </mxCell>
                <mxCell id="2628Q4g7fj1R3oGlUBzu-61" value="" style="endArrow=none;html=1;rounded=0;" edge="1" parent="2628Q4g7fj1R3oGlUBzu-17">
                    <mxGeometry width="50" height="50" relative="1" as="geometry">
                        <mxPoint x="2010" y="460" as="sourcePoint"/>
                        <mxPoint x="2010" y="420" as="targetPoint"/>
                    </mxGeometry>
                </mxCell>
                <mxCell id="2628Q4g7fj1R3oGlUBzu-62" value="" style="endArrow=none;html=1;rounded=0;" edge="1" parent="2628Q4g7fj1R3oGlUBzu-17">
                    <mxGeometry width="50" height="50" relative="1" as="geometry">
                        <mxPoint x="2010" y="480" as="sourcePoint"/>
                        <mxPoint x="2010" y="520" as="targetPoint"/>
                    </mxGeometry>
                </mxCell>
                <mxCell id="2628Q4g7fj1R3oGlUBzu-63" value="" style="endArrow=none;html=1;rounded=0;" edge="1" parent="2628Q4g7fj1R3oGlUBzu-17">
                    <mxGeometry width="50" height="50" relative="1" as="geometry">
                        <mxPoint x="2020" y="470" as="sourcePoint"/>
                        <mxPoint x="2010" y="480" as="targetPoint"/>
                    </mxGeometry>
                </mxCell>
                <mxCell id="2628Q4g7fj1R3oGlUBzu-64" value="" style="endArrow=none;html=1;rounded=0;" edge="1" parent="2628Q4g7fj1R3oGlUBzu-17">
                    <mxGeometry width="50" height="50" relative="1" as="geometry">
                        <mxPoint x="2020" y="470" as="sourcePoint"/>
                        <mxPoint x="2010" y="460" as="targetPoint"/>
                    </mxGeometry>
                </mxCell>
                <mxCell id="2628Q4g7fj1R3oGlUBzu-65" value="" style="endArrow=none;html=1;rounded=0;fontSize=9;strokeWidth=1;" edge="1" parent="2628Q4g7fj1R3oGlUBzu-17">
                    <mxGeometry width="50" height="50" relative="1" as="geometry">
                        <mxPoint x="2010" y="520" as="sourcePoint"/>
                        <mxPoint x="2050" y="500" as="targetPoint"/>
                    </mxGeometry>
                </mxCell>
                <mxCell id="2628Q4g7fj1R3oGlUBzu-66" value="" style="endArrow=none;html=1;rounded=0;fontSize=9;strokeWidth=1;" edge="1" parent="2628Q4g7fj1R3oGlUBzu-17">
                    <mxGeometry width="50" height="50" relative="1" as="geometry">
                        <mxPoint x="2010" y="420" as="sourcePoint"/>
                        <mxPoint x="2050" y="440" as="targetPoint"/>
                    </mxGeometry>
                </mxCell>
                <mxCell id="2628Q4g7fj1R3oGlUBzu-67" value="" style="endArrow=classic;html=1;rounded=0;fontSize=9;strokeWidth=1;exitX=1;exitY=0.5;exitDx=0;exitDy=0;" edge="1" parent="2628Q4g7fj1R3oGlUBzu-17" source="2628Q4g7fj1R3oGlUBzu-56">
                    <mxGeometry width="50" height="50" relative="1" as="geometry">
                        <mxPoint x="1840" y="580" as="sourcePoint"/>
                        <mxPoint x="2010" y="500" as="targetPoint"/>
                        <Array as="points">
                            <mxPoint x="1860" y="540"/>
                            <mxPoint x="1860" y="500"/>
                        </Array>
                    </mxGeometry>
                </mxCell>
                <mxCell id="2628Q4g7fj1R3oGlUBzu-68" style="edgeStyle=orthogonalEdgeStyle;rounded=0;orthogonalLoop=1;jettySize=auto;html=1;entryX=0.996;entryY=0.801;entryDx=0;entryDy=0;entryPerimeter=0;fontSize=9;strokeWidth=1;" edge="1" parent="2628Q4g7fj1R3oGlUBzu-17" source="2628Q4g7fj1R3oGlUBzu-69" target="2628Q4g7fj1R3oGlUBzu-56">
                    <mxGeometry relative="1" as="geometry">
                        <Array as="points">
                            <mxPoint x="1910" y="610"/>
                            <mxPoint x="1910" y="570"/>
                        </Array>
                    </mxGeometry>
                </mxCell>
                <mxCell id="2628Q4g7fj1R3oGlUBzu-69" value="Mux" style="rounded=0;whiteSpace=wrap;html=1;" vertex="1" parent="2628Q4g7fj1R3oGlUBzu-17">
                    <mxGeometry x="1970" y="570" width="40" height="80" as="geometry"/>
                </mxCell>
                <mxCell id="2628Q4g7fj1R3oGlUBzu-70" value="" style="endArrow=none;html=1;rounded=0;exitX=1;exitY=1;exitDx=0;exitDy=0;entryX=0;entryY=0.5;entryDx=0;entryDy=0;" edge="1" parent="2628Q4g7fj1R3oGlUBzu-17" source="2628Q4g7fj1R3oGlUBzu-69" target="2628Q4g7fj1R3oGlUBzu-69">
                    <mxGeometry width="50" height="50" relative="1" as="geometry">
                        <mxPoint x="2060" y="660" as="sourcePoint"/>
                        <mxPoint x="2110" y="610" as="targetPoint"/>
                    </mxGeometry>
                </mxCell>
                <mxCell id="2628Q4g7fj1R3oGlUBzu-71" value="" style="endArrow=none;html=1;rounded=0;exitX=0;exitY=0.5;exitDx=0;exitDy=0;entryX=1;entryY=0;entryDx=0;entryDy=0;" edge="1" parent="2628Q4g7fj1R3oGlUBzu-17" source="2628Q4g7fj1R3oGlUBzu-69" target="2628Q4g7fj1R3oGlUBzu-69">
                    <mxGeometry width="50" height="50" relative="1" as="geometry">
                        <mxPoint x="2070" y="730" as="sourcePoint"/>
                        <mxPoint x="2120" y="680" as="targetPoint"/>
                    </mxGeometry>
                </mxCell>
                <mxCell id="2628Q4g7fj1R3oGlUBzu-72" value="" style="endArrow=classic;html=1;rounded=0;fontSize=9;strokeWidth=1;entryX=1;entryY=0.25;entryDx=0;entryDy=0;" edge="1" parent="2628Q4g7fj1R3oGlUBzu-17" target="2628Q4g7fj1R3oGlUBzu-69">
                    <mxGeometry width="50" height="50" relative="1" as="geometry">
                        <mxPoint x="2050" y="470" as="sourcePoint"/>
                        <mxPoint x="2070.56" y="470" as="targetPoint"/>
                        <Array as="points">
                            <mxPoint x="2070.56" y="470"/>
                            <mxPoint x="2071" y="590"/>
                        </Array>
                    </mxGeometry>
                </mxCell>
                <mxCell id="2628Q4g7fj1R3oGlUBzu-73" value="&lt;span style=&quot;font-size: 8px&quot;&gt;0&lt;/span&gt;" style="text;html=1;strokeColor=none;fillColor=none;align=center;verticalAlign=middle;whiteSpace=wrap;rounded=0;fontSize=12;" vertex="1" parent="2628Q4g7fj1R3oGlUBzu-17">
                    <mxGeometry x="1560" y="630" width="20" height="10" as="geometry"/>
                </mxCell>
                <mxCell id="2628Q4g7fj1R3oGlUBzu-74" value="&lt;font style=&quot;font-size: 8px&quot;&gt;31&lt;/font&gt;" style="text;html=1;strokeColor=none;fillColor=none;align=center;verticalAlign=middle;whiteSpace=wrap;rounded=0;fontSize=12;" vertex="1" parent="2628Q4g7fj1R3oGlUBzu-17">
                    <mxGeometry x="1560" y="480" width="20" height="10" as="geometry"/>
                </mxCell>
                <mxCell id="2628Q4g7fj1R3oGlUBzu-75" value="&lt;font style=&quot;font-size: 8px&quot;&gt;FFZ&lt;/font&gt;" style="rounded=0;whiteSpace=wrap;html=1;" vertex="1" parent="2628Q4g7fj1R3oGlUBzu-17">
                    <mxGeometry x="2010" y="320" width="39.44" height="40" as="geometry"/>
                </mxCell>
                <mxCell id="2628Q4g7fj1R3oGlUBzu-76" value="" style="endArrow=classic;html=1;rounded=0;fontSize=8;strokeWidth=1;entryX=0.5;entryY=1;entryDx=0;entryDy=0;" edge="1" parent="2628Q4g7fj1R3oGlUBzu-17" target="2628Q4g7fj1R3oGlUBzu-75">
                    <mxGeometry width="50" height="50" relative="1" as="geometry">
                        <mxPoint x="2030.5599999999995" y="430" as="sourcePoint"/>
                        <mxPoint x="2090.56" y="360" as="targetPoint"/>
                    </mxGeometry>
                </mxCell>
                <mxCell id="2628Q4g7fj1R3oGlUBzu-77" value="Mux" style="rounded=0;whiteSpace=wrap;html=1;" vertex="1" parent="2628Q4g7fj1R3oGlUBzu-17">
                    <mxGeometry x="1150" y="650" width="40" height="80" as="geometry"/>
                </mxCell>
                <mxCell id="2628Q4g7fj1R3oGlUBzu-78" value="" style="endArrow=none;html=1;rounded=0;exitX=0;exitY=0;exitDx=0;exitDy=0;entryX=1;entryY=0.5;entryDx=0;entryDy=0;" edge="1" parent="2628Q4g7fj1R3oGlUBzu-17" source="2628Q4g7fj1R3oGlUBzu-77" target="2628Q4g7fj1R3oGlUBzu-77">
                    <mxGeometry width="50" height="50" relative="1" as="geometry">
                        <mxPoint x="1220" y="710" as="sourcePoint"/>
                        <mxPoint x="1270" y="660" as="targetPoint"/>
                    </mxGeometry>
                </mxCell>
                <mxCell id="2628Q4g7fj1R3oGlUBzu-79" value="" style="endArrow=none;html=1;rounded=0;exitX=0;exitY=1;exitDx=0;exitDy=0;entryX=1;entryY=0.5;entryDx=0;entryDy=0;" edge="1" parent="2628Q4g7fj1R3oGlUBzu-17" source="2628Q4g7fj1R3oGlUBzu-77" target="2628Q4g7fj1R3oGlUBzu-77">
                    <mxGeometry width="50" height="50" relative="1" as="geometry">
                        <mxPoint x="1240" y="750" as="sourcePoint"/>
                        <mxPoint x="1190" y="680" as="targetPoint"/>
                    </mxGeometry>
                </mxCell>
                <mxCell id="2628Q4g7fj1R3oGlUBzu-80" value="" style="endArrow=classic;html=1;rounded=0;entryX=0;entryY=0.75;entryDx=0;entryDy=0;exitX=0;exitY=0.5;exitDx=0;exitDy=0;" edge="1" parent="2628Q4g7fj1R3oGlUBzu-17" source="2628Q4g7fj1R3oGlUBzu-25" target="2628Q4g7fj1R3oGlUBzu-77">
                    <mxGeometry width="50" height="50" relative="1" as="geometry">
                        <mxPoint x="1070" y="610" as="sourcePoint"/>
                        <mxPoint x="1120" y="560" as="targetPoint"/>
                        <Array as="points">
                            <mxPoint x="1070" y="350"/>
                            <mxPoint x="1070" y="710"/>
                        </Array>
                    </mxGeometry>
                </mxCell>
                <mxCell id="2628Q4g7fj1R3oGlUBzu-82" value="Pila&lt;br&gt;&lt;br&gt;64 x 10b" style="whiteSpace=wrap;html=1;aspect=fixed;rounded=0;" vertex="1" parent="2628Q4g7fj1R3oGlUBzu-17">
                    <mxGeometry x="1159.46" y="480" width="80" height="80" as="geometry"/>
                </mxCell>
                <mxCell id="2628Q4g7fj1R3oGlUBzu-83" value="" style="endArrow=classic;html=1;rounded=0;entryX=0.5;entryY=0;entryDx=0;entryDy=0;" edge="1" parent="2628Q4g7fj1R3oGlUBzu-17" target="2628Q4g7fj1R3oGlUBzu-82">
                    <mxGeometry width="50" height="50" relative="1" as="geometry">
                        <mxPoint x="1310" y="430" as="sourcePoint"/>
                        <mxPoint x="1320" y="440" as="targetPoint"/>
                        <Array as="points">
                            <mxPoint x="1310" y="460"/>
                            <mxPoint x="1199" y="460"/>
                        </Array>
                    </mxGeometry>
                </mxCell>
                <mxCell id="2628Q4g7fj1R3oGlUBzu-84" value="" style="endArrow=classic;html=1;rounded=0;entryX=0;entryY=0.5;entryDx=0;entryDy=0;" edge="1" parent="2628Q4g7fj1R3oGlUBzu-17" target="2628Q4g7fj1R3oGlUBzu-29">
                    <mxGeometry width="50" height="50" relative="1" as="geometry">
                        <mxPoint x="1190" y="690" as="sourcePoint"/>
                        <mxPoint x="1260" y="630" as="targetPoint"/>
                    </mxGeometry>
                </mxCell>
                <mxCell id="2628Q4g7fj1R3oGlUBzu-91" value="&lt;font style=&quot;font-size: 17px&quot; color=&quot;#97d077&quot;&gt;&lt;b&gt;CLK&lt;/b&gt;&lt;/font&gt;" style="text;html=1;strokeColor=none;fillColor=none;align=center;verticalAlign=middle;whiteSpace=wrap;rounded=0;" vertex="1" parent="2628Q4g7fj1R3oGlUBzu-17">
                    <mxGeometry x="315" y="1050" width="70" height="35" as="geometry"/>
                </mxCell>
                <mxCell id="2628Q4g7fj1R3oGlUBzu-92" value="&lt;font style=&quot;font-size: 17px&quot;&gt;&lt;b&gt;Reset&lt;/b&gt;&lt;/font&gt;" style="text;html=1;strokeColor=none;fillColor=none;align=center;verticalAlign=middle;whiteSpace=wrap;rounded=0;fontColor=#97D077;" vertex="1" parent="2628Q4g7fj1R3oGlUBzu-17">
                    <mxGeometry x="330" y="1130" width="40" height="30" as="geometry"/>
                </mxCell>
                <mxCell id="2628Q4g7fj1R3oGlUBzu-93" value="Mux" style="rounded=0;whiteSpace=wrap;html=1;" vertex="1" parent="2628Q4g7fj1R3oGlUBzu-17">
                    <mxGeometry x="1920" y="380" width="40" height="80" as="geometry"/>
                </mxCell>
                <mxCell id="2628Q4g7fj1R3oGlUBzu-94" value="" style="endArrow=none;html=1;rounded=0;exitX=0;exitY=0;exitDx=0;exitDy=0;entryX=1;entryY=0.5;entryDx=0;entryDy=0;" edge="1" parent="2628Q4g7fj1R3oGlUBzu-17" source="2628Q4g7fj1R3oGlUBzu-93" target="2628Q4g7fj1R3oGlUBzu-93">
                    <mxGeometry width="50" height="50" relative="1" as="geometry">
                        <mxPoint x="1990" y="440" as="sourcePoint"/>
                        <mxPoint x="2040" y="390" as="targetPoint"/>
                    </mxGeometry>
                </mxCell>
                <mxCell id="2628Q4g7fj1R3oGlUBzu-95" value="" style="endArrow=none;html=1;rounded=0;exitX=0;exitY=1;exitDx=0;exitDy=0;entryX=1;entryY=0.5;entryDx=0;entryDy=0;" edge="1" parent="2628Q4g7fj1R3oGlUBzu-17" source="2628Q4g7fj1R3oGlUBzu-93" target="2628Q4g7fj1R3oGlUBzu-93">
                    <mxGeometry width="50" height="50" relative="1" as="geometry">
                        <mxPoint x="2010" y="480" as="sourcePoint"/>
                        <mxPoint x="1960" y="410" as="targetPoint"/>
                    </mxGeometry>
                </mxCell>
                <mxCell id="2628Q4g7fj1R3oGlUBzu-96" value="" style="endArrow=classic;html=1;rounded=0;" edge="1" parent="2628Q4g7fj1R3oGlUBzu-17">
                    <mxGeometry width="50" height="50" relative="1" as="geometry">
                        <mxPoint x="1960" y="420" as="sourcePoint"/>
                        <mxPoint x="2010" y="440" as="targetPoint"/>
                        <Array as="points">
                            <mxPoint x="1990" y="420"/>
                            <mxPoint x="1990" y="440"/>
                        </Array>
                    </mxGeometry>
                </mxCell>
                <mxCell id="2628Q4g7fj1R3oGlUBzu-97" value="" style="endArrow=classic;html=1;rounded=0;exitX=1.002;exitY=0.199;exitDx=0;exitDy=0;exitPerimeter=0;entryX=0;entryY=0.75;entryDx=0;entryDy=0;" edge="1" parent="2628Q4g7fj1R3oGlUBzu-17" source="2628Q4g7fj1R3oGlUBzu-56" target="2628Q4g7fj1R3oGlUBzu-93">
                    <mxGeometry width="50" height="50" relative="1" as="geometry">
                        <mxPoint x="1830" y="460" as="sourcePoint"/>
                        <mxPoint x="1880" y="410" as="targetPoint"/>
                        <Array as="points">
                            <mxPoint x="1840" y="510"/>
                            <mxPoint x="1840" y="440"/>
                        </Array>
                    </mxGeometry>
                </mxCell>
                <mxCell id="2628Q4g7fj1R3oGlUBzu-98" value="" style="endArrow=none;html=1;rounded=0;fontSize=9;strokeWidth=1;" edge="1" parent="2628Q4g7fj1R3oGlUBzu-17">
                    <mxGeometry width="50" height="50" relative="1" as="geometry">
                        <mxPoint x="1630" y="580" as="sourcePoint"/>
                        <mxPoint x="1640" y="580" as="targetPoint"/>
                    </mxGeometry>
                </mxCell>
                <mxCell id="2628Q4g7fj1R3oGlUBzu-99" value="" style="endArrow=none;html=1;rounded=0;" edge="1" parent="2628Q4g7fj1R3oGlUBzu-17">
                    <mxGeometry width="50" height="50" relative="1" as="geometry">
                        <mxPoint x="1640" y="580" as="sourcePoint"/>
                        <mxPoint x="1640" y="510" as="targetPoint"/>
                    </mxGeometry>
                </mxCell>
                <mxCell id="2628Q4g7fj1R3oGlUBzu-100" value="" style="endArrow=none;html=1;rounded=0;" edge="1" parent="2628Q4g7fj1R3oGlUBzu-17">
                    <mxGeometry width="50" height="50" relative="1" as="geometry">
                        <mxPoint x="1640" y="510" as="sourcePoint"/>
                        <mxPoint x="1670" y="510" as="targetPoint"/>
                    </mxGeometry>
                </mxCell>
                <mxCell id="2628Q4g7fj1R3oGlUBzu-101" value="" style="endArrow=none;html=1;rounded=0;" edge="1" parent="2628Q4g7fj1R3oGlUBzu-17">
                    <mxGeometry width="50" height="50" relative="1" as="geometry">
                        <mxPoint x="1670" y="510" as="sourcePoint"/>
                        <mxPoint x="1670" y="400" as="targetPoint"/>
                    </mxGeometry>
                </mxCell>
                <mxCell id="2628Q4g7fj1R3oGlUBzu-102" value="" style="endArrow=classic;html=1;rounded=0;entryX=0;entryY=0.25;entryDx=0;entryDy=0;" edge="1" parent="2628Q4g7fj1R3oGlUBzu-17" target="2628Q4g7fj1R3oGlUBzu-93">
                    <mxGeometry width="50" height="50" relative="1" as="geometry">
                        <mxPoint x="1670" y="400" as="sourcePoint"/>
                        <mxPoint x="1820" y="400" as="targetPoint"/>
                    </mxGeometry>
                </mxCell>
                <mxCell id="2628Q4g7fj1R3oGlUBzu-103" value="" style="endArrow=classic;html=1;rounded=0;jumpStyle=arc;" edge="1" parent="2628Q4g7fj1R3oGlUBzu-17">
                    <mxGeometry width="50" height="50" relative="1" as="geometry">
                        <mxPoint x="1880" y="440" as="sourcePoint"/>
                        <mxPoint x="2190" y="730" as="targetPoint"/>
                        <Array as="points">
                            <mxPoint x="1880" y="730"/>
                        </Array>
                    </mxGeometry>
                </mxCell>
                <mxCell id="2628Q4g7fj1R3oGlUBzu-104" value="" style="endArrow=classic;html=1;rounded=0;fontColor=#97D077;strokeColor=#97D077;strokeWidth=2;" edge="1" parent="2628Q4g7fj1R3oGlUBzu-17">
                    <mxGeometry width="50" height="50" relative="1" as="geometry">
                        <mxPoint x="2070" y="520" as="sourcePoint"/>
                        <mxPoint x="2390" y="520" as="targetPoint"/>
                    </mxGeometry>
                </mxCell>
                <mxCell id="2628Q4g7fj1R3oGlUBzu-105" value="&lt;br&gt;T&lt;br&gt;r&lt;br&gt;a&lt;br&gt;n&lt;br&gt;s&lt;br&gt;c&lt;br&gt;e&lt;br&gt;i&lt;br&gt;v&lt;br&gt;e&lt;br&gt;r" style="rounded=0;whiteSpace=wrap;html=1;" vertex="1" parent="2628Q4g7fj1R3oGlUBzu-17">
                    <mxGeometry x="2190" y="580" width="20" height="200" as="geometry"/>
                </mxCell>
                <mxCell id="2628Q4g7fj1R3oGlUBzu-106" value="" style="endArrow=classic;html=1;rounded=0;entryX=1;entryY=0.75;entryDx=0;entryDy=0;exitX=0;exitY=0.25;exitDx=0;exitDy=0;" edge="1" parent="2628Q4g7fj1R3oGlUBzu-17" source="2628Q4g7fj1R3oGlUBzu-105" target="2628Q4g7fj1R3oGlUBzu-69">
                    <mxGeometry width="50" height="50" relative="1" as="geometry">
                        <mxPoint x="2100" y="670" as="sourcePoint"/>
                        <mxPoint x="2150" y="620" as="targetPoint"/>
                    </mxGeometry>
                </mxCell>
                <mxCell id="2628Q4g7fj1R3oGlUBzu-107" value="" style="endArrow=classic;startArrow=classic;html=1;rounded=0;exitX=1;exitY=0.5;exitDx=0;exitDy=0;fontColor=#97D077;strokeColor=#97D077;strokeWidth=2;" edge="1" parent="2628Q4g7fj1R3oGlUBzu-17" source="2628Q4g7fj1R3oGlUBzu-105">
                    <mxGeometry width="50" height="50" relative="1" as="geometry">
                        <mxPoint x="2400" y="660" as="sourcePoint"/>
                        <mxPoint x="2390" y="680" as="targetPoint"/>
                    </mxGeometry>
                </mxCell>
                <mxCell id="2628Q4g7fj1R3oGlUBzu-108" value="Direcciones" style="text;html=1;strokeColor=none;fillColor=none;align=center;verticalAlign=middle;whiteSpace=wrap;rounded=0;" vertex="1" parent="2628Q4g7fj1R3oGlUBzu-17">
                    <mxGeometry x="2340" y="490" width="60" height="30" as="geometry"/>
                </mxCell>
                <mxCell id="2628Q4g7fj1R3oGlUBzu-109" value="Datos" style="text;html=1;strokeColor=none;fillColor=none;align=center;verticalAlign=middle;whiteSpace=wrap;rounded=0;" vertex="1" parent="2628Q4g7fj1R3oGlUBzu-17">
                    <mxGeometry x="2340" y="650" width="60" height="30" as="geometry"/>
                </mxCell>
                <mxCell id="2628Q4g7fj1R3oGlUBzu-110" value="" style="endArrow=classic;html=1;rounded=0;" edge="1" parent="2628Q4g7fj1R3oGlUBzu-17">
                    <mxGeometry width="50" height="50" relative="1" as="geometry">
                        <mxPoint x="1420" y="400" as="sourcePoint"/>
                        <mxPoint x="1380" y="400" as="targetPoint"/>
                    </mxGeometry>
                </mxCell>
                <mxCell id="2628Q4g7fj1R3oGlUBzu-112" value="10" style="text;html=1;strokeColor=none;fillColor=none;align=center;verticalAlign=middle;whiteSpace=wrap;rounded=0;" vertex="1" parent="2628Q4g7fj1R3oGlUBzu-17">
                    <mxGeometry x="1370" y="670" width="20" height="20" as="geometry"/>
                </mxCell>
                <mxCell id="2628Q4g7fj1R3oGlUBzu-113" value="10" style="text;html=1;strokeColor=none;fillColor=none;align=center;verticalAlign=middle;whiteSpace=wrap;rounded=0;" vertex="1" parent="2628Q4g7fj1R3oGlUBzu-17">
                    <mxGeometry x="1150" y="370" width="20" height="20" as="geometry"/>
                </mxCell>
                <mxCell id="2628Q4g7fj1R3oGlUBzu-114" value="10" style="text;html=1;strokeColor=none;fillColor=none;align=center;verticalAlign=middle;whiteSpace=wrap;rounded=0;" vertex="1" parent="2628Q4g7fj1R3oGlUBzu-17">
                    <mxGeometry x="1290" y="380" width="20" height="20" as="geometry"/>
                </mxCell>
                <mxCell id="2628Q4g7fj1R3oGlUBzu-115" value="32" style="text;html=1;strokeColor=none;fillColor=none;align=center;verticalAlign=middle;whiteSpace=wrap;rounded=0;" vertex="1" parent="2628Q4g7fj1R3oGlUBzu-17">
                    <mxGeometry x="1540" y="590" width="20" height="20" as="geometry"/>
                </mxCell>
                <mxCell id="2628Q4g7fj1R3oGlUBzu-116" value="10" style="text;html=1;strokeColor=none;fillColor=none;align=center;verticalAlign=middle;whiteSpace=wrap;rounded=0;" vertex="1" parent="2628Q4g7fj1R3oGlUBzu-17">
                    <mxGeometry x="1420" y="569" width="20" height="20" as="geometry"/>
                </mxCell>
                <mxCell id="2628Q4g7fj1R3oGlUBzu-117" value="10" style="text;html=1;strokeColor=none;fillColor=none;align=center;verticalAlign=middle;whiteSpace=wrap;rounded=0;" vertex="1" parent="2628Q4g7fj1R3oGlUBzu-17">
                    <mxGeometry x="1390" y="380" width="20" height="20" as="geometry"/>
                </mxCell>
                <mxCell id="2628Q4g7fj1R3oGlUBzu-118" value="10" style="text;html=1;strokeColor=none;fillColor=none;align=center;verticalAlign=middle;whiteSpace=wrap;rounded=0;" vertex="1" parent="2628Q4g7fj1R3oGlUBzu-17">
                    <mxGeometry x="1214.46" y="670" width="20" height="20" as="geometry"/>
                </mxCell>
                <mxCell id="2628Q4g7fj1R3oGlUBzu-119" value="10" style="text;html=1;strokeColor=none;fillColor=none;align=center;verticalAlign=middle;whiteSpace=wrap;rounded=0;" vertex="1" parent="2628Q4g7fj1R3oGlUBzu-17">
                    <mxGeometry x="1110" y="710" width="20" height="20" as="geometry"/>
                </mxCell>
                <mxCell id="2628Q4g7fj1R3oGlUBzu-120" value="10" style="text;html=1;strokeColor=none;fillColor=none;align=center;verticalAlign=middle;whiteSpace=wrap;rounded=0;" vertex="1" parent="2628Q4g7fj1R3oGlUBzu-17">
                    <mxGeometry x="1400" y="460" width="20" height="20" as="geometry"/>
                </mxCell>
                <mxCell id="2628Q4g7fj1R3oGlUBzu-121" value="&lt;font style=&quot;font-size: 16px&quot;&gt;1&lt;/font&gt;" style="text;html=1;strokeColor=none;fillColor=none;align=center;verticalAlign=middle;whiteSpace=wrap;rounded=0;" vertex="1" parent="2628Q4g7fj1R3oGlUBzu-17">
                    <mxGeometry x="1420" y="390" width="20" height="20" as="geometry"/>
                </mxCell>
                <mxCell id="2628Q4g7fj1R3oGlUBzu-122" value="R1" style="text;html=1;strokeColor=none;fillColor=none;align=center;verticalAlign=middle;whiteSpace=wrap;rounded=0;" vertex="1" parent="2628Q4g7fj1R3oGlUBzu-17">
                    <mxGeometry x="1880" y="420" width="30" height="20" as="geometry"/>
                </mxCell>
                <mxCell id="2628Q4g7fj1R3oGlUBzu-123" value="R2" style="text;html=1;strokeColor=none;fillColor=none;align=center;verticalAlign=middle;whiteSpace=wrap;rounded=0;" vertex="1" parent="2628Q4g7fj1R3oGlUBzu-17">
                    <mxGeometry x="1970" y="480" width="30" height="20" as="geometry"/>
                </mxCell>
                <mxCell id="2628Q4g7fj1R3oGlUBzu-124" value="A&lt;br&gt;L&lt;br&gt;U" style="text;html=1;strokeColor=none;fillColor=none;align=center;verticalAlign=middle;whiteSpace=wrap;rounded=0;" vertex="1" parent="2628Q4g7fj1R3oGlUBzu-17">
                    <mxGeometry x="2025.06" y="450" width="11" height="40" as="geometry"/>
                </mxCell>
                <mxCell id="2628Q4g7fj1R3oGlUBzu-125" value="inm" style="text;html=1;strokeColor=none;fillColor=none;align=center;verticalAlign=middle;whiteSpace=wrap;rounded=0;" vertex="1" parent="2628Q4g7fj1R3oGlUBzu-17">
                    <mxGeometry x="1870" y="380" width="40" height="20" as="geometry"/>
                </mxCell>
                <mxCell id="2628Q4g7fj1R3oGlUBzu-126" value="16" style="text;html=1;strokeColor=none;fillColor=none;align=center;verticalAlign=middle;whiteSpace=wrap;rounded=0;" vertex="1" parent="2628Q4g7fj1R3oGlUBzu-17">
                    <mxGeometry x="1820" y="450" width="20" height="20" as="geometry"/>
                </mxCell>
                <mxCell id="2628Q4g7fj1R3oGlUBzu-127" value="16" style="text;html=1;strokeColor=none;fillColor=none;align=center;verticalAlign=middle;whiteSpace=wrap;rounded=0;" vertex="1" parent="2628Q4g7fj1R3oGlUBzu-17">
                    <mxGeometry x="1940" y="480" width="20" height="20" as="geometry"/>
                </mxCell>
                <mxCell id="2628Q4g7fj1R3oGlUBzu-128" value="16" style="text;html=1;strokeColor=none;fillColor=none;align=center;verticalAlign=middle;whiteSpace=wrap;rounded=0;" vertex="1" parent="2628Q4g7fj1R3oGlUBzu-17">
                    <mxGeometry x="1837" y="550" width="20" height="20" as="geometry"/>
                </mxCell>
                <mxCell id="2628Q4g7fj1R3oGlUBzu-129" value="16" style="text;html=1;strokeColor=none;fillColor=none;align=center;verticalAlign=middle;whiteSpace=wrap;rounded=0;" vertex="1" parent="2628Q4g7fj1R3oGlUBzu-17">
                    <mxGeometry x="2160" y="710" width="20" height="20" as="geometry"/>
                </mxCell>
                <mxCell id="2628Q4g7fj1R3oGlUBzu-130" value="16" style="text;html=1;strokeColor=none;fillColor=none;align=center;verticalAlign=middle;whiteSpace=wrap;rounded=0;" vertex="1" parent="2628Q4g7fj1R3oGlUBzu-17">
                    <mxGeometry x="2160" y="610" width="20" height="20" as="geometry"/>
                </mxCell>
                <mxCell id="2628Q4g7fj1R3oGlUBzu-131" value="16" style="text;html=1;strokeColor=none;fillColor=none;align=center;verticalAlign=middle;whiteSpace=wrap;rounded=0;" vertex="1" parent="2628Q4g7fj1R3oGlUBzu-17">
                    <mxGeometry x="1760" y="380" width="20" height="20" as="geometry"/>
                </mxCell>
                <mxCell id="2628Q4g7fj1R3oGlUBzu-132" value="16" style="text;html=1;strokeColor=none;fillColor=none;align=center;verticalAlign=middle;whiteSpace=wrap;rounded=0;" vertex="1" parent="2628Q4g7fj1R3oGlUBzu-17">
                    <mxGeometry x="1970" y="400" width="20" height="20" as="geometry"/>
                </mxCell>
                <mxCell id="2628Q4g7fj1R3oGlUBzu-133" value="16" style="text;html=1;strokeColor=none;fillColor=none;align=center;verticalAlign=middle;whiteSpace=wrap;rounded=0;" vertex="1" parent="2628Q4g7fj1R3oGlUBzu-17">
                    <mxGeometry x="2250" y="500" width="20" height="20" as="geometry"/>
                </mxCell>
                <mxCell id="2628Q4g7fj1R3oGlUBzu-134" value="16" style="text;html=1;strokeColor=none;fillColor=none;align=center;verticalAlign=middle;whiteSpace=wrap;rounded=0;" vertex="1" parent="2628Q4g7fj1R3oGlUBzu-17">
                    <mxGeometry x="2050" y="540" width="20" height="20" as="geometry"/>
                </mxCell>
                <mxCell id="2628Q4g7fj1R3oGlUBzu-135" value="10" style="text;html=1;strokeColor=none;fillColor=none;align=center;verticalAlign=middle;whiteSpace=wrap;rounded=0;" vertex="1" parent="2628Q4g7fj1R3oGlUBzu-17">
                    <mxGeometry x="1090" y="582.5" width="20" height="20" as="geometry"/>
                </mxCell>
                <mxCell id="2628Q4g7fj1R3oGlUBzu-145" value="10" style="text;html=1;strokeColor=none;fillColor=none;align=center;verticalAlign=middle;whiteSpace=wrap;rounded=0;" vertex="1" parent="2628Q4g7fj1R3oGlUBzu-17">
                    <mxGeometry x="1230" y="440" width="20" height="20" as="geometry"/>
                </mxCell>
                <mxCell id="2628Q4g7fj1R3oGlUBzu-146" value="10" style="text;html=1;strokeColor=none;fillColor=none;align=center;verticalAlign=middle;whiteSpace=wrap;rounded=0;" vertex="1" parent="2628Q4g7fj1R3oGlUBzu-17">
                    <mxGeometry x="1290" y="350" width="20" height="20" as="geometry"/>
                </mxCell>
                <mxCell id="2628Q4g7fj1R3oGlUBzu-151" value="" style="endArrow=classic;html=1;strokeWidth=2;strokeColor=#97D077;rounded=0;" edge="1" parent="2628Q4g7fj1R3oGlUBzu-17">
                    <mxGeometry width="50" height="50" relative="1" as="geometry">
                        <mxPoint x="2415" y="429.5999999999997" as="sourcePoint"/>
                        <mxPoint x="2255" y="429.5999999999997" as="targetPoint"/>
                    </mxGeometry>
                </mxCell>
                <mxCell id="2628Q4g7fj1R3oGlUBzu-152" value="Gestor de&amp;nbsp;&lt;br&gt;interruciones" style="whiteSpace=wrap;html=1;aspect=fixed;rounded=0;" vertex="1" parent="2628Q4g7fj1R3oGlUBzu-17">
                    <mxGeometry x="2145" y="325" width="110" height="110" as="geometry"/>
                </mxCell>
                <mxCell id="2628Q4g7fj1R3oGlUBzu-155" value="" style="endArrow=classic;html=1;entryX=1;entryY=0.21;entryDx=0;entryDy=0;entryPerimeter=0;exitX=0.5;exitY=0;exitDx=0;exitDy=0;rounded=0;" edge="1" parent="2628Q4g7fj1R3oGlUBzu-17" source="2628Q4g7fj1R3oGlUBzu-152" target="2628Q4g7fj1R3oGlUBzu-25">
                    <mxGeometry width="50" height="50" relative="1" as="geometry">
                        <mxPoint x="1340" y="240" as="sourcePoint"/>
                        <mxPoint x="1420" y="270" as="targetPoint"/>
                        <Array as="points">
                            <mxPoint x="2200" y="220"/>
                            <mxPoint x="1340" y="220"/>
                            <mxPoint x="1340" y="304"/>
                        </Array>
                    </mxGeometry>
                </mxCell>
                <mxCell id="2628Q4g7fj1R3oGlUBzu-157" value="" style="endArrow=classic;html=1;entryX=1;entryY=0.41;entryDx=0;entryDy=0;entryPerimeter=0;rounded=0;" edge="1" parent="2628Q4g7fj1R3oGlUBzu-17" target="2628Q4g7fj1R3oGlUBzu-25">
                    <mxGeometry width="50" height="50" relative="1" as="geometry">
                        <mxPoint x="1360" y="336" as="sourcePoint"/>
                        <mxPoint x="1410" y="310" as="targetPoint"/>
                    </mxGeometry>
                </mxCell>
                <mxCell id="2628Q4g7fj1R3oGlUBzu-158" value="10" style="text;html=1;strokeColor=none;fillColor=none;align=center;verticalAlign=middle;whiteSpace=wrap;rounded=0;" vertex="1" parent="2628Q4g7fj1R3oGlUBzu-17">
                    <mxGeometry x="1780" y="200" width="20" height="20" as="geometry"/>
                </mxCell>
                <mxCell id="2628Q4g7fj1R3oGlUBzu-159" value="1" style="text;html=1;strokeColor=none;fillColor=none;align=center;verticalAlign=middle;whiteSpace=wrap;rounded=0;" vertex="1" parent="2628Q4g7fj1R3oGlUBzu-17">
                    <mxGeometry x="2420" y="325" width="20" height="20" as="geometry"/>
                </mxCell>
                <mxCell id="2628Q4g7fj1R3oGlUBzu-160" value="" style="endArrow=classic;html=1;strokeWidth=2;strokeColor=#97D077;rounded=0;" edge="1" parent="2628Q4g7fj1R3oGlUBzu-17">
                    <mxGeometry width="50" height="50" relative="1" as="geometry">
                        <mxPoint x="2415" y="399.5999999999997" as="sourcePoint"/>
                        <mxPoint x="2255" y="399.5999999999997" as="targetPoint"/>
                    </mxGeometry>
                </mxCell>
                <mxCell id="2628Q4g7fj1R3oGlUBzu-161" value="" style="endArrow=classic;html=1;strokeWidth=2;strokeColor=#97D077;rounded=0;" edge="1" parent="2628Q4g7fj1R3oGlUBzu-17">
                    <mxGeometry width="50" height="50" relative="1" as="geometry">
                        <mxPoint x="2415" y="365" as="sourcePoint"/>
                        <mxPoint x="2255" y="365" as="targetPoint"/>
                    </mxGeometry>
                </mxCell>
                <mxCell id="2628Q4g7fj1R3oGlUBzu-162" value="" style="endArrow=classic;html=1;strokeWidth=2;strokeColor=#97D077;rounded=0;" edge="1" parent="2628Q4g7fj1R3oGlUBzu-17">
                    <mxGeometry width="50" height="50" relative="1" as="geometry">
                        <mxPoint x="2415" y="335" as="sourcePoint"/>
                        <mxPoint x="2255" y="335" as="targetPoint"/>
                    </mxGeometry>
                </mxCell>
                <mxCell id="2628Q4g7fj1R3oGlUBzu-163" value="1" style="text;html=1;strokeColor=none;fillColor=none;align=center;verticalAlign=middle;whiteSpace=wrap;rounded=0;" vertex="1" parent="2628Q4g7fj1R3oGlUBzu-17">
                    <mxGeometry x="2420" y="360" width="20" height="20" as="geometry"/>
                </mxCell>
                <mxCell id="2628Q4g7fj1R3oGlUBzu-164" value="1" style="text;html=1;strokeColor=none;fillColor=none;align=center;verticalAlign=middle;whiteSpace=wrap;rounded=0;" vertex="1" parent="2628Q4g7fj1R3oGlUBzu-17">
                    <mxGeometry x="2420" y="390" width="20" height="20" as="geometry"/>
                </mxCell>
                <mxCell id="2628Q4g7fj1R3oGlUBzu-165" value="1" style="text;html=1;strokeColor=none;fillColor=none;align=center;verticalAlign=middle;whiteSpace=wrap;rounded=0;" vertex="1" parent="2628Q4g7fj1R3oGlUBzu-17">
                    <mxGeometry x="2420" y="420" width="20" height="20" as="geometry"/>
                </mxCell>
                <mxCell id="OQLTb5v05TLrRRcLkUVN-15" style="edgeStyle=orthogonalEdgeStyle;rounded=0;orthogonalLoop=1;jettySize=auto;html=1;strokeColor=default;strokeWidth=1;entryX=0;entryY=0.25;entryDx=0;entryDy=0;" edge="1" parent="2628Q4g7fj1R3oGlUBzu-17">
                    <mxGeometry relative="1" as="geometry">
                        <mxPoint x="1150" y="670.0000000000002" as="targetPoint"/>
                        <mxPoint x="1199.5" y="560.0000000000002" as="sourcePoint"/>
                        <Array as="points">
                            <mxPoint x="1200" y="610"/>
                            <mxPoint x="1120" y="610"/>
                            <mxPoint x="1120" y="670"/>
                        </Array>
                    </mxGeometry>
                </mxCell>
                <mxCell id="OQLTb5v05TLrRRcLkUVN-33" value="&lt;font style=&quot;font-size: 70px&quot; color=&quot;#000000&quot;&gt;CPU&lt;/font&gt;" style="text;html=1;strokeColor=none;fillColor=none;align=center;verticalAlign=middle;whiteSpace=wrap;rounded=0;glass=0;fontColor=#FF3333;" vertex="1" parent="2628Q4g7fj1R3oGlUBzu-17">
                    <mxGeometry x="1540" y="690" width="180" height="80" as="geometry"/>
                </mxCell>
                <mxCell id="EzgPWdz7aM8sBUb9HzV1-4" value="" style="endArrow=none;html=1;rounded=0;strokeWidth=3;" edge="1" parent="2628Q4g7fj1R3oGlUBzu-17">
                    <mxGeometry width="50" height="50" relative="1" as="geometry">
                        <mxPoint x="320" y="1160" as="sourcePoint"/>
                        <mxPoint x="2414" y="1160" as="targetPoint"/>
                    </mxGeometry>
                </mxCell>
                <mxCell id="EzgPWdz7aM8sBUb9HzV1-7" value="" style="endArrow=none;html=1;rounded=0;strokeWidth=3;strokeColor=#97D077;" edge="1" parent="2628Q4g7fj1R3oGlUBzu-17">
                    <mxGeometry width="50" height="50" relative="1" as="geometry">
                        <mxPoint x="320" y="1080" as="sourcePoint"/>
                        <mxPoint x="2414" y="1080" as="targetPoint"/>
                    </mxGeometry>
                </mxCell>
                <mxCell id="EzgPWdz7aM8sBUb9HzV1-8" value="" style="endArrow=none;html=1;rounded=0;strokeWidth=3;strokeColor=#97D077;" edge="1" parent="2628Q4g7fj1R3oGlUBzu-17">
                    <mxGeometry width="50" height="50" relative="1" as="geometry">
                        <mxPoint x="320" y="1160" as="sourcePoint"/>
                        <mxPoint x="2414" y="1160" as="targetPoint"/>
                    </mxGeometry>
                </mxCell>
                <mxCell id="EzgPWdz7aM8sBUb9HzV1-9" value="" style="endArrow=classic;html=1;rounded=0;entryX=1;entryY=0.25;entryDx=0;entryDy=0;strokeWidth=2;strokeColor=#97D077;" edge="1" parent="2628Q4g7fj1R3oGlUBzu-17">
                    <mxGeometry width="50" height="50" relative="1" as="geometry">
                        <mxPoint x="1430.0000000000005" y="1160" as="sourcePoint"/>
                        <mxPoint x="1360.0000000000005" y="710" as="targetPoint"/>
                        <Array as="points">
                            <mxPoint x="1430" y="710"/>
                        </Array>
                    </mxGeometry>
                </mxCell>
                <mxCell id="EzgPWdz7aM8sBUb9HzV1-10" value="" style="endArrow=classic;html=1;rounded=0;entryX=1;entryY=0.25;entryDx=0;entryDy=0;strokeWidth=2;strokeColor=#97D077;" edge="1" parent="2628Q4g7fj1R3oGlUBzu-17">
                    <mxGeometry width="50" height="50" relative="1" as="geometry">
                        <mxPoint x="1400.0000000000005" y="1080" as="sourcePoint"/>
                        <mxPoint x="1360.0000000000005" y="740" as="targetPoint"/>
                        <Array as="points">
                            <mxPoint x="1400" y="740"/>
                        </Array>
                    </mxGeometry>
                </mxCell>
                <mxCell id="EzgPWdz7aM8sBUb9HzV1-11" value="" style="endArrow=classic;html=1;rounded=0;strokeWidth=2;entryX=0.25;entryY=1;entryDx=0;entryDy=0;strokeColor=#97D077;" edge="1" parent="2628Q4g7fj1R3oGlUBzu-17">
                    <mxGeometry width="50" height="50" relative="1" as="geometry">
                        <mxPoint x="1480.0000000000005" y="1080" as="sourcePoint"/>
                        <mxPoint x="1477.5000000000005" y="640" as="targetPoint"/>
                    </mxGeometry>
                </mxCell>
                <mxCell id="EzgPWdz7aM8sBUb9HzV1-12" value="" style="endArrow=classic;html=1;rounded=0;strokeWidth=2;entryX=0.75;entryY=1;entryDx=0;entryDy=0;strokeColor=#97D077;" edge="1" parent="2628Q4g7fj1R3oGlUBzu-17">
                    <mxGeometry width="50" height="50" relative="1" as="geometry">
                        <mxPoint x="1513" y="1160" as="sourcePoint"/>
                        <mxPoint x="1512.5000000000005" y="640" as="targetPoint"/>
                    </mxGeometry>
                </mxCell>
                <mxCell id="EzgPWdz7aM8sBUb9HzV1-13" value="" style="endArrow=classic;html=1;rounded=0;strokeWidth=2;entryX=0.25;entryY=1;entryDx=0;entryDy=0;strokeColor=#97D077;" edge="1" parent="2628Q4g7fj1R3oGlUBzu-17">
                    <mxGeometry width="50" height="50" relative="1" as="geometry">
                        <mxPoint x="1800" y="1080" as="sourcePoint"/>
                        <mxPoint x="1800" y="590" as="targetPoint"/>
                    </mxGeometry>
                </mxCell>
                <mxCell id="EzgPWdz7aM8sBUb9HzV1-14" value="" style="endArrow=classic;html=1;rounded=0;strokeWidth=2;entryX=0.25;entryY=1;entryDx=0;entryDy=0;strokeColor=#97D077;" edge="1" parent="2628Q4g7fj1R3oGlUBzu-17">
                    <mxGeometry width="50" height="50" relative="1" as="geometry">
                        <mxPoint x="2200" y="1080" as="sourcePoint"/>
                        <mxPoint x="2200" y="780" as="targetPoint"/>
                    </mxGeometry>
                </mxCell>
                <mxCell id="EzgPWdz7aM8sBUb9HzV1-15" value="" style="endArrow=classic;html=1;rounded=0;strokeWidth=2;entryX=-0.046;entryY=0.936;entryDx=0;entryDy=0;entryPerimeter=0;strokeColor=#97D077;" edge="1" parent="2628Q4g7fj1R3oGlUBzu-17">
                    <mxGeometry width="50" height="50" relative="1" as="geometry">
                        <mxPoint x="2160" y="1160" as="sourcePoint"/>
                        <mxPoint x="2189.08" y="767.2000000000003" as="targetPoint"/>
                        <Array as="points">
                            <mxPoint x="2160" y="767"/>
                        </Array>
                    </mxGeometry>
                </mxCell>
                <mxCell id="EzgPWdz7aM8sBUb9HzV1-16" value="" style="endArrow=classic;html=1;rounded=0;strokeWidth=2;entryX=1;entryY=0.25;entryDx=0;entryDy=0;strokeColor=#97D077;jumpStyle=arc;" edge="1" parent="2628Q4g7fj1R3oGlUBzu-17">
                    <mxGeometry width="50" height="50" relative="1" as="geometry">
                        <mxPoint x="2120" y="1160" as="sourcePoint"/>
                        <mxPoint x="2049.4400000000005" y="329.99999999999955" as="targetPoint"/>
                        <Array as="points">
                            <mxPoint x="2120" y="330"/>
                        </Array>
                    </mxGeometry>
                </mxCell>
                <mxCell id="EzgPWdz7aM8sBUb9HzV1-17" value="" style="endArrow=classic;html=1;rounded=0;strokeWidth=2;entryX=1;entryY=0.75;entryDx=0;entryDy=0;strokeColor=#97D077;jumpStyle=arc;" edge="1" parent="2628Q4g7fj1R3oGlUBzu-17">
                    <mxGeometry width="50" height="50" relative="1" as="geometry">
                        <mxPoint x="2100" y="1080" as="sourcePoint"/>
                        <mxPoint x="2049.4400000000005" y="350.00000000000045" as="targetPoint"/>
                        <Array as="points">
                            <mxPoint x="2100" y="350"/>
                        </Array>
                    </mxGeometry>
                </mxCell>
                <mxCell id="EzgPWdz7aM8sBUb9HzV1-18" value="" style="endArrow=classic;html=1;rounded=0;strokeWidth=2;strokeColor=#97D077;jumpStyle=arc;" edge="1" parent="2628Q4g7fj1R3oGlUBzu-17">
                    <mxGeometry width="50" height="50" relative="1" as="geometry">
                        <mxPoint x="1270.0000000000005" y="1080" as="sourcePoint"/>
                        <mxPoint x="1240.0000000000005" y="540" as="targetPoint"/>
                        <Array as="points">
                            <mxPoint x="1270" y="540"/>
                        </Array>
                    </mxGeometry>
                </mxCell>
                <mxCell id="EzgPWdz7aM8sBUb9HzV1-19" value="" style="endArrow=classic;html=1;rounded=0;entryX=1;entryY=0.25;entryDx=0;entryDy=0;strokeWidth=2;strokeColor=#97D077;jumpStyle=arc;" edge="1" parent="2628Q4g7fj1R3oGlUBzu-17">
                    <mxGeometry width="50" height="50" relative="1" as="geometry">
                        <mxPoint x="1300.0000000000005" y="1160" as="sourcePoint"/>
                        <mxPoint x="1239.46" y="500" as="targetPoint"/>
                        <Array as="points">
                            <mxPoint x="1300" y="500"/>
                        </Array>
                    </mxGeometry>
                </mxCell>
                <mxCell id="EzgPWdz7aM8sBUb9HzV1-20" value="" style="endArrow=classic;html=1;rounded=0;entryX=0.25;entryY=1;entryDx=0;entryDy=0;" edge="1" parent="2628Q4g7fj1R3oGlUBzu-17" target="2628Q4g7fj1R3oGlUBzu-152">
                    <mxGeometry width="50" height="50" relative="1" as="geometry">
                        <mxPoint x="2100" y="460" as="sourcePoint"/>
                        <mxPoint x="2220" y="450" as="targetPoint"/>
                        <Array as="points">
                            <mxPoint x="2173" y="460"/>
                        </Array>
                    </mxGeometry>
                </mxCell>
                <mxCell id="EzgPWdz7aM8sBUb9HzV1-21" value="" style="endArrow=classic;html=1;rounded=0;entryX=0.25;entryY=1;entryDx=0;entryDy=0;strokeWidth=2;strokeColor=#97D077;" edge="1" parent="2628Q4g7fj1R3oGlUBzu-17" target="2628Q4g7fj1R3oGlUBzu-152">
                    <mxGeometry width="50" height="50" relative="1" as="geometry">
                        <mxPoint x="2100" y="460" as="sourcePoint"/>
                        <mxPoint x="2172.5" y="435" as="targetPoint"/>
                        <Array as="points">
                            <mxPoint x="2173" y="460"/>
                        </Array>
                    </mxGeometry>
                </mxCell>
                <mxCell id="EzgPWdz7aM8sBUb9HzV1-22" value="" style="endArrow=classic;html=1;rounded=0;entryX=0.75;entryY=1;entryDx=0;entryDy=0;strokeWidth=2;strokeColor=#97D077;" edge="1" parent="2628Q4g7fj1R3oGlUBzu-17" target="2628Q4g7fj1R3oGlUBzu-152">
                    <mxGeometry width="50" height="50" relative="1" as="geometry">
                        <mxPoint x="2120" y="490" as="sourcePoint"/>
                        <mxPoint x="2250" y="450" as="targetPoint"/>
                        <Array as="points">
                            <mxPoint x="2228" y="490"/>
                        </Array>
                    </mxGeometry>
                </mxCell>
                <mxCell id="Q3OMpW1yopWRwC5tCn3O-2" value="" style="endArrow=none;html=1;rounded=0;strokeWidth=3;strokeColor=#97D077;" edge="1" parent="2628Q4g7fj1R3oGlUBzu-17">
                    <mxGeometry width="50" height="50" relative="1" as="geometry">
                        <mxPoint x="170" y="920" as="sourcePoint"/>
                        <mxPoint x="236.9999999999991" y="920" as="targetPoint"/>
                    </mxGeometry>
                </mxCell>
                <mxCell id="Q3OMpW1yopWRwC5tCn3O-5" value="" style="endArrow=none;html=1;rounded=0;strokeWidth=3;strokeColor=#FF3333;" edge="1" parent="2628Q4g7fj1R3oGlUBzu-17">
                    <mxGeometry width="50" height="50" relative="1" as="geometry">
                        <mxPoint x="170.00000000000023" y="980" as="sourcePoint"/>
                        <mxPoint x="236.9999999999991" y="980" as="targetPoint"/>
                    </mxGeometry>
                </mxCell>
                <mxCell id="Q3OMpW1yopWRwC5tCn3O-6" value="&lt;font style=&quot;font-size: 17px&quot; color=&quot;#97d077&quot;&gt;&lt;b&gt;SeÃ±ales que van al exterior&lt;/b&gt;&lt;/font&gt;" style="text;html=1;strokeColor=none;fillColor=none;align=center;verticalAlign=middle;whiteSpace=wrap;rounded=0;" vertex="1" parent="2628Q4g7fj1R3oGlUBzu-17">
                    <mxGeometry x="240" y="900" width="250" height="35" as="geometry"/>
                </mxCell>
                <mxCell id="Q3OMpW1yopWRwC5tCn3O-7" value="&lt;font style=&quot;font-size: 17px&quot;&gt;&lt;b&gt;SeÃ±ales de control&lt;/b&gt;&lt;/font&gt;" style="text;html=1;strokeColor=none;fillColor=none;align=center;verticalAlign=middle;whiteSpace=wrap;rounded=0;fontColor=#FF3333;" vertex="1" parent="2628Q4g7fj1R3oGlUBzu-17">
                    <mxGeometry x="250" y="960" width="160" height="35" as="geometry"/>
                </mxCell>
                <mxCell id="Q3OMpW1yopWRwC5tCn3O-9" value="" style="endArrow=classic;html=1;rounded=0;fontColor=#FF3333;strokeColor=#FF3333;strokeWidth=2;entryX=1.002;entryY=0.382;entryDx=0;entryDy=0;entryPerimeter=0;" edge="1" parent="2628Q4g7fj1R3oGlUBzu-17" target="OQLTb5v05TLrRRcLkUVN-1">
                    <mxGeometry width="50" height="50" relative="1" as="geometry">
                        <mxPoint x="930" y="420" as="sourcePoint"/>
                        <mxPoint x="760" y="420" as="targetPoint"/>
                    </mxGeometry>
                </mxCell>
                <mxCell id="1" value="Unidad de Control" style="" parent="0"/>
                <mxCell id="OQLTb5v05TLrRRcLkUVN-1" value="&lt;font style=&quot;font-size: 38px&quot;&gt;Unidad&amp;nbsp;&lt;br&gt;de&lt;br&gt;Control&lt;br&gt;&lt;/font&gt;" style="rounded=0;whiteSpace=wrap;html=1;strokeWidth=5;" vertex="1" parent="1">
                    <mxGeometry x="40" y="160" width="650" height="680" as="geometry"/>
                </mxCell>
                <mxCell id="OQLTb5v05TLrRRcLkUVN-10" value="" style="endArrow=classic;html=1;rounded=0;strokeColor=#FF3333;strokeWidth=2;exitX=1.001;exitY=0.881;exitDx=0;exitDy=0;entryX=0.5;entryY=1;entryDx=0;entryDy=0;exitPerimeter=0;" edge="1" parent="1">
                    <mxGeometry width="50" height="50" relative="1" as="geometry">
                        <mxPoint x="690.6500000000001" y="759.0799999999995" as="sourcePoint"/>
                        <mxPoint x="1170" y="730" as="targetPoint"/>
                        <Array as="points">
                            <mxPoint x="1170" y="760"/>
                        </Array>
                    </mxGeometry>
                </mxCell>
                <mxCell id="OQLTb5v05TLrRRcLkUVN-11" value="" style="endArrow=classic;html=1;rounded=0;entryX=0;entryY=0.75;entryDx=0;entryDy=0;strokeColor=#FF3333;exitX=0.999;exitY=0.559;exitDx=0;exitDy=0;exitPerimeter=0;strokeWidth=2;jumpStyle=arc;" edge="1" parent="1">
                    <mxGeometry width="50" height="50" relative="1" as="geometry">
                        <mxPoint x="689.3499999999999" y="540.1199999999999" as="sourcePoint"/>
                        <mxPoint x="1159.46" y="540.0000000000002" as="targetPoint"/>
                    </mxGeometry>
                </mxCell>
                <mxCell id="OQLTb5v05TLrRRcLkUVN-12" value="" style="endArrow=classic;html=1;rounded=0;entryX=0;entryY=0.25;entryDx=0;entryDy=0;strokeColor=#FF3333;exitX=1;exitY=0.5;exitDx=0;exitDy=0;strokeWidth=2;jumpStyle=arc;" edge="1" parent="1">
                    <mxGeometry width="50" height="50" relative="1" as="geometry">
                        <mxPoint x="690" y="499.9999999999998" as="sourcePoint"/>
                        <mxPoint x="1159.46" y="500.0000000000002" as="targetPoint"/>
                    </mxGeometry>
                </mxCell>
                <mxCell id="OQLTb5v05TLrRRcLkUVN-13" value="" style="endArrow=classic;html=1;rounded=0;entryX=0.5;entryY=0;entryDx=0;entryDy=0;fillColor=#f8cecc;strokeColor=#FF3333;exitX=0.998;exitY=0.084;exitDx=0;exitDy=0;exitPerimeter=0;strokeWidth=2;" edge="1" parent="1">
                    <mxGeometry width="50" height="50" relative="1" as="geometry">
                        <mxPoint x="688.6999999999998" y="217.11999999999966" as="sourcePoint"/>
                        <mxPoint x="1260" y="270.0000000000002" as="targetPoint"/>
                        <Array as="points">
                            <mxPoint x="1260" y="217"/>
                        </Array>
                    </mxGeometry>
                </mxCell>
                <mxCell id="OQLTb5v05TLrRRcLkUVN-14" value="" style="endArrow=classic;html=1;rounded=0;entryX=0.5;entryY=0;entryDx=0;entryDy=0;fillColor=#f8cecc;strokeColor=#FF3333;exitX=1;exitY=0.25;exitDx=0;exitDy=0;strokeWidth=2;shadow=0;jumpStyle=arc;" edge="1" parent="1">
                    <mxGeometry width="50" height="50" relative="1" as="geometry">
                        <mxPoint x="690" y="329.9999999999998" as="sourcePoint"/>
                        <mxPoint x="1795" y="490.0000000000002" as="targetPoint"/>
                        <Array as="points">
                            <mxPoint x="840" y="330"/>
                            <mxPoint x="1040" y="330"/>
                            <mxPoint x="1040" y="250"/>
                            <mxPoint x="1320" y="250"/>
                            <mxPoint x="1795" y="250"/>
                        </Array>
                    </mxGeometry>
                </mxCell>
                <mxCell id="OQLTb5v05TLrRRcLkUVN-16" value="&lt;font&gt;Push/call&lt;/font&gt;" style="text;html=1;strokeColor=none;fillColor=none;align=center;verticalAlign=middle;whiteSpace=wrap;rounded=0;fontColor=#FF3333;fontStyle=1;" vertex="1" parent="1">
                    <mxGeometry x="1090" y="470" width="60" height="30" as="geometry"/>
                </mxCell>
                <mxCell id="OQLTb5v05TLrRRcLkUVN-17" value="&lt;font&gt;Pop/ret&amp;nbsp; &amp;nbsp;&lt;/font&gt;" style="text;html=1;strokeColor=none;fillColor=none;align=center;verticalAlign=middle;whiteSpace=wrap;rounded=0;fontColor=#FF3333;fontStyle=1;" vertex="1" parent="1">
                    <mxGeometry x="1090" y="520" width="50" height="30" as="geometry"/>
                </mxCell>
                <mxCell id="OQLTb5v05TLrRRcLkUVN-18" value="&lt;b&gt;&lt;font&gt;S_INC&lt;/font&gt;&lt;/b&gt;" style="text;html=1;strokeColor=none;fillColor=none;align=center;verticalAlign=middle;whiteSpace=wrap;rounded=0;fontColor=#FF3333;" vertex="1" parent="1">
                    <mxGeometry x="700" y="190" width="60" height="30" as="geometry"/>
                </mxCell>
                <mxCell id="OQLTb5v05TLrRRcLkUVN-19" value="&lt;b&gt;&lt;font&gt;WE3&lt;/font&gt;&lt;/b&gt;" style="text;html=1;strokeColor=none;fillColor=none;align=center;verticalAlign=middle;whiteSpace=wrap;rounded=0;fontColor=#FF3333;glass=0;" vertex="1" parent="1">
                    <mxGeometry x="690" y="300" width="60" height="30" as="geometry"/>
                </mxCell>
                <mxCell id="OQLTb5v05TLrRRcLkUVN-20" value="&lt;b&gt;&lt;font&gt;S_Pila&lt;/font&gt;&lt;/b&gt;" style="text;html=1;strokeColor=none;fillColor=none;align=center;verticalAlign=middle;whiteSpace=wrap;rounded=0;fontColor=#FF3333;" vertex="1" parent="1">
                    <mxGeometry x="690" y="730" width="60" height="30" as="geometry"/>
                </mxCell>
                <mxCell id="OQLTb5v05TLrRRcLkUVN-21" value="" style="endArrow=classic;html=1;rounded=0;entryX=0.5;entryY=1;entryDx=0;entryDy=0;fillColor=#f8cecc;strokeColor=#FF3333;exitX=1;exitY=0.75;exitDx=0;exitDy=0;strokeWidth=2;jumpStyle=arc;" edge="1" parent="1">
                    <mxGeometry width="50" height="50" relative="1" as="geometry">
                        <mxPoint x="690" y="669.9999999999998" as="sourcePoint"/>
                        <mxPoint x="1940" y="460.0000000000002" as="targetPoint"/>
                        <Array as="points">
                            <mxPoint x="890" y="670"/>
                            <mxPoint x="890" y="840"/>
                            <mxPoint x="1910" y="840"/>
                            <mxPoint x="1910" y="650"/>
                            <mxPoint x="1940" y="650"/>
                        </Array>
                    </mxGeometry>
                </mxCell>
                <mxCell id="OQLTb5v05TLrRRcLkUVN-22" value="&lt;span&gt;&lt;font&gt;S_INM&lt;/font&gt;&lt;/span&gt;" style="text;html=1;strokeColor=none;fillColor=none;align=center;verticalAlign=middle;whiteSpace=wrap;rounded=0;fontColor=#FF3333;fontStyle=1;" vertex="1" parent="1">
                    <mxGeometry x="1880" y="470" width="60" height="30" as="geometry"/>
                </mxCell>
                <mxCell id="OQLTb5v05TLrRRcLkUVN-24" value="" style="endArrow=classic;html=1;rounded=0;fillColor=#f8cecc;strokeColor=#FF3333;fontColor=#FF3333;fontStyle=1;strokeWidth=2;jumpStyle=arc;" edge="1" parent="1">
                    <mxGeometry width="50" height="50" relative="1" as="geometry">
                        <mxPoint x="690" y="714" as="sourcePoint"/>
                        <mxPoint x="2030" y="510" as="targetPoint"/>
                        <Array as="points">
                            <mxPoint x="800" y="714"/>
                            <mxPoint x="800" y="880"/>
                            <mxPoint x="2030" y="880"/>
                        </Array>
                    </mxGeometry>
                </mxCell>
                <mxCell id="OQLTb5v05TLrRRcLkUVN-25" value="&lt;b&gt;&lt;font color=&quot;#ff3333&quot;&gt;OP_ALU&lt;/font&gt;&lt;/b&gt;" style="text;html=1;strokeColor=none;fillColor=none;align=center;verticalAlign=middle;whiteSpace=wrap;rounded=0;" vertex="1" parent="1">
                    <mxGeometry x="700" y="680" width="60" height="30" as="geometry"/>
                </mxCell>
                <mxCell id="OQLTb5v05TLrRRcLkUVN-26" value="" style="endArrow=classic;html=1;rounded=0;entryX=0.5;entryY=1;entryDx=0;entryDy=0;fillColor=#f8cecc;strokeColor=#FF3333;exitX=0.999;exitY=0.668;exitDx=0;exitDy=0;exitPerimeter=0;strokeWidth=2;jumpStyle=arc;" edge="1" parent="1">
                    <mxGeometry width="50" height="50" relative="1" as="geometry">
                        <mxPoint x="689.3499999999999" y="614.2400000000002" as="sourcePoint"/>
                        <mxPoint x="1990" y="650" as="targetPoint"/>
                        <Array as="points">
                            <mxPoint x="840" y="614"/>
                            <mxPoint x="840" y="800"/>
                            <mxPoint x="1990" y="800"/>
                        </Array>
                    </mxGeometry>
                </mxCell>
                <mxCell id="OQLTb5v05TLrRRcLkUVN-27" value="&lt;span&gt;&lt;font&gt;S_Datos&lt;/font&gt;&lt;/span&gt;" style="text;html=1;strokeColor=none;fillColor=none;align=center;verticalAlign=middle;whiteSpace=wrap;rounded=0;fontStyle=1;fontColor=#FF3333;" vertex="1" parent="1">
                    <mxGeometry x="700" y="590" width="60" height="20" as="geometry"/>
                </mxCell>
                <mxCell id="OQLTb5v05TLrRRcLkUVN-28" value="" style="endArrow=classic;html=1;rounded=0;fillColor=#f8cecc;strokeColor=#FF3333;exitX=1;exitY=0.147;exitDx=0;exitDy=0;exitPerimeter=0;strokeWidth=2;jumpStyle=arc;entryX=0;entryY=0.5;entryDx=0;entryDy=0;" edge="1" parent="1" target="2628Q4g7fj1R3oGlUBzu-75">
                    <mxGeometry width="50" height="50" relative="1" as="geometry">
                        <mxPoint x="689.9999999999995" y="259.96000000000004" as="sourcePoint"/>
                        <mxPoint x="2020" y="349.9999999999998" as="targetPoint"/>
                        <Array as="points">
                            <mxPoint x="840" y="260"/>
                            <mxPoint x="840" y="240"/>
                            <mxPoint x="1960" y="240"/>
                            <mxPoint x="1960" y="340"/>
                        </Array>
                    </mxGeometry>
                </mxCell>
                <mxCell id="OQLTb5v05TLrRRcLkUVN-29" value="&lt;span&gt;&lt;font&gt;WEZ&lt;/font&gt;&lt;/span&gt;" style="text;html=1;strokeColor=none;fillColor=none;align=center;verticalAlign=middle;whiteSpace=wrap;rounded=0;fontColor=#FF3333;fontStyle=1;" vertex="1" parent="1">
                    <mxGeometry x="1950" y="310" width="60" height="30" as="geometry"/>
                </mxCell>
                <mxCell id="tAXWvjsz3XL3aXo7ijdv-1" value="" style="endArrow=none;html=1;rounded=0;strokeColor=#FF3333;strokeWidth=2;jumpStyle=arc;" edge="1" parent="1">
                    <mxGeometry width="50" height="50" relative="1" as="geometry">
                        <mxPoint x="930" y="421" as="sourcePoint"/>
                        <mxPoint x="1610" y="560" as="targetPoint"/>
                        <Array as="points">
                            <mxPoint x="930" y="421"/>
                            <mxPoint x="930" y="190"/>
                            <mxPoint x="1620" y="190"/>
                            <mxPoint x="1620" y="560"/>
                        </Array>
                    </mxGeometry>
                </mxCell>
                <mxCell id="tAXWvjsz3XL3aXo7ijdv-2" value="" style="endArrow=none;html=1;rounded=0;strokeColor=#FF3333;strokeWidth=2;jumpStyle=arc;" edge="1" parent="1">
                    <mxGeometry width="50" height="50" relative="1" as="geometry">
                        <mxPoint x="1610" y="530" as="sourcePoint"/>
                        <mxPoint x="1610" y="590" as="targetPoint"/>
                    </mxGeometry>
                </mxCell>
                <mxCell id="tAXWvjsz3XL3aXo7ijdv-3" value="&lt;b&gt;OPCODE&lt;/b&gt;" style="text;html=1;strokeColor=none;fillColor=none;align=center;verticalAlign=middle;whiteSpace=wrap;rounded=0;fontColor=#FF3333;" vertex="1" parent="1">
                    <mxGeometry x="710" y="390" width="60" height="30" as="geometry"/>
                </mxCell>
                <mxCell id="QzZ2lb5FwBypanWXneYi-9" value="&lt;span&gt;&lt;font&gt;S_Datos&lt;/font&gt;&lt;/span&gt;" style="text;html=1;strokeColor=none;fillColor=none;align=center;verticalAlign=middle;whiteSpace=wrap;rounded=0;fontStyle=1;fontColor=#FF3333;" vertex="1" parent="1">
                    <mxGeometry x="1930" y="660" width="60" height="20" as="geometry"/>
                </mxCell>
                <mxCell id="QzZ2lb5FwBypanWXneYi-10" value="&lt;b&gt;&lt;font&gt;WE3&lt;/font&gt;&lt;/b&gt;" style="text;html=1;strokeColor=none;fillColor=none;align=center;verticalAlign=middle;whiteSpace=wrap;rounded=0;fontColor=#FF3333;glass=0;" vertex="1" parent="1">
                    <mxGeometry x="1750" y="450" width="60" height="30" as="geometry"/>
                </mxCell>
                <mxCell id="QzZ2lb5FwBypanWXneYi-11" value="&lt;b&gt;&lt;font color=&quot;#ff3333&quot;&gt;OP_ALU&lt;/font&gt;&lt;/b&gt;" style="text;html=1;strokeColor=none;fillColor=none;align=center;verticalAlign=middle;whiteSpace=wrap;rounded=0;" vertex="1" parent="1">
                    <mxGeometry x="1965.06" y="525" width="60" height="30" as="geometry"/>
                </mxCell>
                <mxCell id="QzZ2lb5FwBypanWXneYi-12" value="&lt;b&gt;&lt;font&gt;S_INC&lt;/font&gt;&lt;/b&gt;" style="text;html=1;strokeColor=none;fillColor=none;align=center;verticalAlign=middle;whiteSpace=wrap;rounded=0;fontColor=#FF3333;" vertex="1" parent="1">
                    <mxGeometry x="1260" y="210" width="60" height="30" as="geometry"/>
                </mxCell>
                <mxCell id="QzZ2lb5FwBypanWXneYi-13" value="&lt;b&gt;OPCODE&lt;/b&gt;" style="text;html=1;strokeColor=none;fillColor=none;align=center;verticalAlign=middle;whiteSpace=wrap;rounded=0;fontColor=#FF3333;" vertex="1" parent="1">
                    <mxGeometry x="1560" y="160" width="60" height="30" as="geometry"/>
                </mxCell>
                <mxCell id="QzZ2lb5FwBypanWXneYi-14" value="&lt;b&gt;&lt;font&gt;S_Pila&lt;/font&gt;&lt;/b&gt;" style="text;html=1;strokeColor=none;fillColor=none;align=center;verticalAlign=middle;whiteSpace=wrap;rounded=0;fontColor=#FF3333;" vertex="1" parent="1">
                    <mxGeometry x="1179.46" y="740" width="60" height="30" as="geometry"/>
                </mxCell>
                <mxCell id="QzZ2lb5FwBypanWXneYi-15" value="&lt;span&gt;&lt;font&gt;WEZ&lt;/font&gt;&lt;/span&gt;" style="text;html=1;strokeColor=none;fillColor=none;align=center;verticalAlign=middle;whiteSpace=wrap;rounded=0;fontColor=#FF3333;fontStyle=1;" vertex="1" parent="1">
                    <mxGeometry x="700" y="230" width="60" height="30" as="geometry"/>
                </mxCell>
                <mxCell id="QzZ2lb5FwBypanWXneYi-16" value="&lt;span&gt;&lt;font&gt;S_INM&lt;/font&gt;&lt;/span&gt;" style="text;html=1;strokeColor=none;fillColor=none;align=center;verticalAlign=middle;whiteSpace=wrap;rounded=0;fontColor=#FF3333;fontStyle=1;" vertex="1" parent="1">
                    <mxGeometry x="690" y="640" width="60" height="30" as="geometry"/>
                </mxCell>
            </root>
        </mxGraphModel>
    </diagram>
</mxfile>